# xmcd
#
# Track frame offsets:
#	150
#	18042
#	30095
#	46743
#	57366
#	69515
#	85598
#	92522
#	115467
#	131339
#	146636
#	157962
#	171830
#	187078
#	200389
#	230453
#
# Disc length: 3253
#
# Revision: 2
# Processed by: cddbd v1.5.1PL0 Copyright (c) Steve Scherf et al.
# Submitted via: audiograbber 1.82.02
# Normalized: r1:DSETVAR1,TDELIM( - ),TSWAP
#
DISCID=c40cb310
DTITLE=Various Artist - All-Star Country Christmas
DYEAR=1900
DGENRE=Christmas
TTITLE0=Glen Campbell - The Little Drummer Boy
TTITLE1=Kim Carnes - O Little Town of Bethlehem
TTITLE2=Willie Nelson - Deck the Halls
TTITLE3=Larry Gatlin - I Heard The Bells On Christmas
TTITLE4=Mickey Gilley - Joy To The World
TTITLE5=Willie Nelson - It Came Upon A Midnight Clear
TTITLE6=Margo Smith - We Wish You A Merry Christmas
TTITLE7=Lee Greenwood - The Twelve Days Of Christmas
TTITLE8=Chrystal Gayle - What Child Is This
TTITLE9=Tom T Hall - O Christmas Tree
TTITLE10=Melba Montgomery - Hark! The Herald Angels Sing
TTITLE11=B J Thomas - The First Noel
TTITLE12=Brenda Lee - O Come All Ye Faithful
TTITLE13=Roy Clark - God Rest Ye Merry Gentlemen
TTITLE14=Willie Nelson - Silent Night
TTITLE15=Waylon Jennings - Away In The Manger
EXTD=
EXTT0=
EXTT1=
EXTT2=
EXTT3=
EXTT4=
EXTT5=
EXTT6=
EXTT7=
EXTT8=
EXTT9=
EXTT10=
EXTT11=
EXTT12=
EXTT13=
EXTT14=
EXTT15=
PLAYORDER=
